<?xml version="1.0" standalone="no"?><!DOCTYPE svg PUBLIC "-//W3C//DTD SVG 1.1//EN" "http://www.w3.org/Graphics/SVG/1.1/DTD/svg11.dtd"><svg t="1709919389980" class="icon" viewBox="0 0 1024 1024" version="1.1" xmlns="http://www.w3.org/2000/svg" p-id="8947" xmlns:xlink="http://www.w3.org/1999/xlink" width="128" height="128"><path d="M182.4 850c-11.4 0-20.6-9.2-20.6-20.6s9.2-20.6 20.6-20.6c11.4 0 20.6 9.2 20.6 20.6S193.8 850 182.4 850z m0-27.2c-3.6 0-6.6 3-6.6 6.6s3 6.6 6.6 6.6 6.6-3 6.6-6.6-3-6.6-6.6-6.6z" fill="#F16723" p-id="8948"></path><path d="M801.8 493.6m-4.2 0a4.2 4.2 0 1 0 8.4 0 4.2 4.2 0 1 0-8.4 0Z" p-id="8949"></path><path d="M806 116.2m-4.2 0a4.2 4.2 0 1 0 8.4 0 4.2 4.2 0 1 0-8.4 0Z" p-id="8950"></path><path d="M145.4 281.8m-4.2 0a4.2 4.2 0 1 0 8.4 0 4.2 4.2 0 1 0-8.4 0Z" p-id="8951"></path><path d="M773.8 104m-6.2 0a6.2 6.2 0 1 0 12.4 0 6.2 6.2 0 1 0-12.4 0Z" p-id="8952"></path><path d="M838.2 463c-13.2 0-23.8-10.6-23.8-23.8 0-13.2 10.6-23.8 23.8-23.8S862 426 862 439.2c0 13.2-10.6 23.8-23.8 23.8z m0-33.6c-5.4 0-9.8 4.4-9.8 9.8s4.4 9.8 9.8 9.8 9.8-4.4 9.8-9.8-4.4-9.8-9.8-9.8z" fill="#FBD20A" p-id="8953"></path><path d="M936.4 789.6h-7v-7c0-3.8-3.2-7-7-7s-7 3.2-7 7v7h-7c-3.8 0-7 3.2-7 7s3.2 7 7 7h7v7c0 3.8 3.2 7 7 7s7-3.2 7-7v-7h7c3.8 0 7-3.2 7-7s-3.2-7-7-7z" fill="#F16723" p-id="8954"></path><path d="M887.4 659.2h-0.4c-89.8 0-162.8-72.8-162.8-162.8s72.8-162.8 162.8-162.8h0.4c15.6 0 26-16.4 18.6-30.2-69.4-130-206.8-218.4-364.6-217.6-226.6 1.2-408.6 184-408.6 410.6 0 226.8 183.8 410.6 410.6 410.6 157 0 293.2-88 362.4-217.4 7.4-13.8-2.6-30.6-18.4-30.4z m-255.8 130c-32.4 0-58.8-26.4-58.8-58.8s26.4-58.8 58.8-58.8 58.8 26.4 58.8 58.8-26.4 58.8-58.8 58.8z" fill="#FFE4B8" p-id="8955"></path><path d="M887.4 659.2h-0.4c-89.8 0-162.8-72.8-162.8-162.8s72.8-162.8 162.8-162.8h0.4c15.6 0 26-16.4 18.6-30.2-69.4-130-206.8-218.4-364.6-217.6-8.6 0-17.2 0.4-25.8 1 145 9.8 269.4 95 334.4 216.6 7.4 13.8-3 30.4-18.6 30.2h-0.4c-89.8 0-148.8 72.8-148.8 162.8s58.8 162.8 148.8 162.8h0.4c15.8 0 26 16.6 18.4 30.6-65 121.6-189.2 206.6-334.2 216.4 9.2 0.6 18.4 1 27.8 1 157 0 293.2-88 362.4-217.4 7.4-14-2.6-30.8-18.4-30.6z" fill="#E7D0A9" p-id="8956"></path><path d="M173.4 496.4c0-218.8 179.6-397 395.4-410-9-0.6-18.2-0.8-27.4-0.8-226.6 1.2-408.6 184-408.6 410.6 0 226.8 183.8 410.6 410.6 410.6 8.6 0 17-0.2 25.4-0.8-215-12.8-395.4-191.2-395.4-409.6z" fill="#FFFFFF" p-id="8957"></path><path d="M250 127.6h-7v-7c0-3.8-3.2-7-7-7s-7 3.2-7 7v7H222c-3.8 0-7 3.2-7 7s3.2 7 7 7h7v7c0 3.8 3.2 7 7 7s7-3.2 7-7v-7h7c3.8 0 7-3.2 7-7s-3.2-7-7-7z" fill="#4E9BD4" p-id="8958"></path><path d="M859.2 850.8m-4.2 0a4.2 4.2 0 1 0 8.4 0 4.2 4.2 0 1 0-8.4 0Z" p-id="8959"></path><path d="M543.4 919.2c-79.6 0-157.4-22.2-224.6-64.4-65.4-41-118.4-99.2-153-168-3-6-0.6-13.2 5.4-16.2s13.2-0.6 16.2 5.4c32.8 64.8 82.6 119.6 144.4 158.4 63.4 39.8 136.6 60.8 211.8 60.8 147.4 0 282.2-80.8 351.8-211 2.2-4 0.6-7.4-0.2-8.8-0.8-1.2-3-4.2-7.6-4.2h-0.4c-96.4 0-174.8-78.4-174.8-174.8 0-6.6 5.4-12 12-12s12 5.4 12 12c0 83.2 67.6 150.8 150.8 150.8h0.4c11.6 0 22.2 6 28.2 15.8 6 10 6.2 22 0.8 32.4-74 138-217 223.8-373.2 223.8z m88.2-115.4c-40.6 0-73.6-33-73.6-73.6s33-73.6 73.6-73.6 73.6 33 73.6 73.6-33 73.6-73.6 73.6z m0-123.2c-27.4 0-49.6 22.2-49.6 49.6s22.2 49.6 49.6 49.6 49.6-22.2 49.6-49.6-22.2-49.6-49.6-49.6z m-467.2-13.4c-4.6 0-9.2-2.8-11-7.4-8-19-14.4-38.6-19.6-58.4-1.6-6.4 2.2-13 8.6-14.6 6.4-1.6 13 2.2 14.6 8.6 4.8 18.8 11 37.2 18.4 55.2 2.6 6.2-0.4 13.2-6.4 15.6-1.4 0.8-3 1-4.6 1z m-24.8-83.8c-5.6 0-10.6-4-11.8-9.8-5-25.8-7-48.2-7-77.2 0-112.8 43.6-218.8 122.8-298.2 79.2-79.6 185-123.8 297.8-124.4h2.2c156.4 0 299.2 85.6 373 224 5.4 10 5.2 22-0.8 31.8-6 10-16.6 16-28.4 16h-0.4c-67.4 0-127 45.4-145.2 110.2-1.8 6.4-8.4 10.2-14.8 8.4-6.4-1.8-10.2-8.4-8.4-14.8 21-75.2 90.2-127.8 168.4-127.8h0.4c3.2 0 6.2-1.6 7.8-4.4 0.8-1.6 2.2-4.6 0.2-8.2-69.6-130.4-204.4-211.2-352-211.2h-2c-106.4 0.6-206.2 42.2-280.8 117.2S144.8 390 144.8 496.4c0 27.6 2 48.6 6.6 72.8 1.2 6.6-3 12.8-9.4 14-0.8 0.2-1.6 0.2-2.4 0.2z" p-id="8960"></path><path d="M360.4 292a84.2 60.2 90 1 0 120.4 0 84.2 60.2 90 1 0-120.4 0Z" fill="#EE3C7A" p-id="8961"></path><path d="M315.8 292a84.2 60.2 90 1 0 120.4 0 84.2 60.2 90 1 0-120.4 0Z" fill="#FFFFFF" p-id="8962"></path><path d="M342.610407 292.9766a84.2 48.8 88.854 1 0 97.580478-1.952013 84.2 48.8 88.854 1 0-97.580478 1.952013Z" fill="#F05F88" p-id="8963"></path><path d="M601.2 248.2a84.2 60.2 90 1 0 120.4 0 84.2 60.2 90 1 0-120.4 0Z" fill="#3769A5" p-id="8964"></path><path d="M556.4 248.2a84.2 60.2 90 1 0 120.4 0 84.2 60.2 90 1 0-120.4 0Z" fill="#FFFFFF" p-id="8965"></path><path d="M583.4 248.2a84.2 48.8 90 1 0 97.6 0 84.2 48.8 90 1 0-97.6 0Z" fill="#4E9BD4" p-id="8966"></path><path d="M253.8 512a84.2 60.2 90 1 0 120.4 0 84.2 60.2 90 1 0-120.4 0Z" fill="#FAAF1A" p-id="8967"></path><path d="M209.2 512a84.2 60.2 90 1 0 120.4 0 84.2 60.2 90 1 0-120.4 0Z" fill="#FFFFFF" p-id="8968"></path><path d="M236 512a84.2 48.8 90 1 0 97.6 0 84.2 48.8 90 1 0-97.6 0Z" fill="#FBD20A" p-id="8969"></path><path d="M358.6 715.6a84.2 60.2 90 1 0 120.4 0 84.2 60.2 90 1 0-120.4 0Z" fill="#F05225" p-id="8970"></path><path d="M314 715.6a84.2 60.2 90 1 0 120.4 0 84.2 60.2 90 1 0-120.4 0Z" fill="#FFFFFF" p-id="8971"></path><path d="M340.8 715.6a84.2 48.8 90 1 0 97.6 0 84.2 48.8 90 1 0-97.6 0Z" fill="#F16723" p-id="8972"></path><path d="M396.6 388.2c-53 0-96.2-43.2-96.2-96.2s43.2-96.2 96.2-96.2 96.2 43.2 96.2 96.2-43.2 96.2-96.2 96.2z m0-168.4c-39.8 0-72.2 32.4-72.2 72.2s32.4 72.2 72.2 72.2 72.2-32.4 72.2-72.2c0-39.8-32.4-72.2-72.2-72.2zM639 344.4c-53 0-96.2-43.2-96.2-96.2S586 152 639 152s96.2 43.2 96.2 96.2-43.2 96.2-96.2 96.2z m0-168.4c-39.8 0-72.2 32.4-72.2 72.2s32.4 72.2 72.2 72.2 72.2-32.4 72.2-72.2S678.8 176 639 176zM291.6 608.2c-53 0-96.2-43.2-96.2-96.2s43.2-96.2 96.2-96.2 96.2 43.2 96.2 96.2-43.2 96.2-96.2 96.2z m0-168.4c-39.8 0-72.2 32.4-72.2 72.2s32.4 72.2 72.2 72.2 72.2-32.4 72.2-72.2-32.4-72.2-72.2-72.2zM396.6 811.8c-53 0-96.2-43.2-96.2-96.2s43.2-96.2 96.2-96.2 96.2 43.2 96.2 96.2-43.2 96.2-96.2 96.2z m0-168.4c-39.8 0-72.2 32.4-72.2 72.2s32.4 72.2 72.2 72.2 72.2-32.4 72.2-72.2-32.4-72.2-72.2-72.2z" p-id="8973"></path></svg>