<?xml version="1.0" standalone="no"?><!DOCTYPE svg PUBLIC "-//W3C//DTD SVG 1.1//EN" "http://www.w3.org/Graphics/SVG/1.1/DTD/svg11.dtd"><svg t="1698913707915" class="icon" viewBox="0 0 1024 1024" version="1.1" xmlns="http://www.w3.org/2000/svg" p-id="4308" width="300" height="300" xmlns:xlink="http://www.w3.org/1999/xlink"><path d="M766.704 702.784l0.016-0.072-0.048 0.032a228.24 228.24 0 0 0-89.552-64.008c13.128-8.736 24.888-17.072 33.856-24.32 65.592-53.04 107.856-136.312 107.856-229.944 0-142.184-97.488-260.4-226.112-285.208a40.888 40.888 0 0 0 2.968-15.168 41.192 41.192 0 1 0-82.384 0c0 4.104 0.784 7.984 1.896 11.72-139.816 14.368-249.072 138.104-249.072 288.648 0 98.176 46.464 184.96 117.56 237.448 7.304 5.392 16.44 11.6 26.6 18.216a228.32 228.32 0 0 0-86.016 62.608l-0.048-0.032 0.016 0.072a226.8 226.8 0 0 0-54.536 147.8V1004.8H821.24v-154.224a226.72 226.72 0 0 0-54.536-147.792z" fill="#E6E7E8" p-id="4309"></path><path d="M617.56 616.544c-55.216 35.368-138.456 78.936-138.456 78.936s-83.68-44.808-135.872-77.472c-80.568 35.096-136.912 115.392-136.912 208.88v134.592h551.552v-134.592c0-94.8-57.936-176.048-140.312-210.344z" fill="#FFFFFF" p-id="4310"></path><path d="M597.656 628.936c-53.288 32.376-118.552 66.544-118.552 66.544s-64.92-34.76-116.064-65.368c-90.984 29.864-156.72 115.432-156.72 216.408v134.592h551.552v-134.592c0-102.272-67.408-188.8-160.216-217.584z" fill="#6DC9F7" p-id="4311"></path><path d="M583.304 703.016c-25.384 20.528-61.104 33.4-100.848 33.4-39.936 0-75.8-12.992-101.208-33.696-40.392 32.904-66.496 85.064-66.496 143.808 0 53.592 7.72 134.584 7.72 134.584h326.984v-134.584c-0.008-58.568-25.968-110.592-66.152-143.512z" fill="#FFFFFF" p-id="4312"></path><path d="M479.104 695.48s-66.552-35.64-117.976-66.52c-6.096 1.76-12.096 3.688-17.952 5.872 4.032 56.6 64.752 101.584 139.272 101.584 74.24 0 134.784-44.64 139.232-100.936a249.368 249.368 0 0 0-22.632-7.384c-53.536 32.624-119.944 67.384-119.944 67.384z" fill="#FA759E" p-id="4313"></path><path d="M437.318364 760.691733a46.416 46.416 0 1 0 90.347357-21.333901 46.416 46.416 0 1 0-90.347357 21.333901Z" fill="#FFD7E5" p-id="4314"></path><path d="M479.104 70.688c-152.624 0-276.352 129.872-276.352 290.08 0 98.176 46.464 184.96 117.56 237.448 44.928 33.168 158.784 97.264 158.784 97.264s121.856-67.056 168.496-104.768c65.592-53.04 107.856-136.312 107.856-229.944 0.008-160.208-123.72-290.08-276.344-290.08z" fill="#FFFFFF" p-id="4315"></path><path d="M479.104 101.28c-152.624 0-276.352 123.52-276.352 275.88 0 93.368 46.464 175.904 117.56 225.824 44.928 31.544 158.784 92.504 158.784 92.504s121.856-63.768 168.496-99.632c65.592-50.44 107.856-129.64 107.856-218.688 0.008-152.376-123.72-275.888-276.344-275.888z" fill="#6DC9F7" p-id="4316"></path><path d="M669.224 386.688c10.6 0 19.672 8.872 23.88 21.592v-59.336c0-136.264-105.68-205.056-211.392-205.424-105.784-0.368-211.6 67.784-211.6 205.424v59.336c4.2-12.72 13.28-21.592 23.88-21.592 3.84 0 7.464 1.216 10.76 3.296a239.592 239.592 0 0 1 34.584-114.8 121.464 121.464 0 0 1 31.984-34.752c28.2 27.128 90.448 78.568 162.208 84.304 52.24 4.176 90.304-6.12 108.496-12.68a240.192 240.192 0 0 1 16.536 77.848 20 20 0 0 1 10.664-3.216z" fill="#0089EF" p-id="4317"></path><path d="M669.224 386.688c-3.8 0-7.392 1.184-10.664 3.224 0.136 3.28 0.24 6.56 0.24 9.848v26.872c0 10.104-0.888 20-2.52 29.64 3.84 3.072 8.216 4.968 12.936 4.968 14.584 0 26.408-16.688 26.408-37.28s-11.816-37.272-26.4-37.272zM304.408 426.632V399.76c0-3.272 0.2-6.52 0.336-9.776a20.056 20.056 0 0 0-10.76-3.296c-14.584 0-26.408 16.688-26.408 37.28s11.824 37.28 26.408 37.28c4.728 0 9.104-1.896 12.936-4.968a179.28 179.28 0 0 1-2.512-29.648z" fill="#FFFFFF" p-id="4318"></path><path d="M642.024 312.056c-18.192 6.56-56.264 16.856-108.496 12.68-71.76-5.744-134.016-57.184-162.208-84.304a121.472 121.472 0 0 0-31.984 34.752 239.68 239.68 0 0 0-34.92 124.576v26.872c0 97.864 79.328 177.192 177.192 177.192S658.8 524.488 658.8 426.632V399.76c0-30.152-5.824-59.864-16.776-87.704z" fill="#FFFFFF" p-id="4319"></path><path d="M582.656 450.6c-8.688 0-15.736 4.44-15.736 9.92 0 5.48 7.048 9.92 15.736 9.92s15.736-4.44 15.736-9.92c0.008-5.48-7.04-9.92-15.736-9.92zM380.552 448.392c-8.688 0-15.736 4.44-15.736 9.92 0 5.48 7.048 9.92 15.736 9.92s15.736-4.44 15.736-9.92c0-5.48-7.048-9.92-15.736-9.92z" fill="#FFD7E5" p-id="4320"></path><path d="M481.608 535.728c-27.16 0-40.984-18.728-41.552-19.528a8.16 8.16 0 0 1 13.208-9.6c0.464 0.616 9.856 12.792 28.344 12.792 18.136 0 28.04-12.416 28.456-12.944a8.184 8.184 0 0 1 11.432-1.472c3.56 2.736 4.256 7.808 1.552 11.384-0.6 0.784-14.984 19.368-41.44 19.368z" fill="#FA759E" p-id="4321"></path><path d="M491.12 60.392m-41.192 0a41.192 41.192 0 1 0 82.384 0 41.192 41.192 0 1 0-82.384 0Z" fill="#FA759E" p-id="4322"></path><path d="M299.488 891.584m-65.224 0a65.224 65.224 0 1 0 130.448 0 65.224 65.224 0 1 0-130.448 0Z" fill="#FFFFFF" p-id="4323"></path><path d="M665.768 894.16m-65.224 0a65.224 65.224 0 1 0 130.448 0 65.224 65.224 0 1 0-130.448 0Z" fill="#FFFFFF" p-id="4324"></path><path d="M710.344 675.336c-0.096-0.176-0.096-0.376-0.208-0.552a8.064 8.064 0 0 0-2.104-2.24 237.152 237.152 0 0 0-77.928-58.944 395.504 395.504 0 0 0 22.52-16.664c70.432-56.952 110.832-143.032 110.832-236.168 0-61.76-17.856-121-51.648-171.336a8 8 0 0 0-13.28 8.912c32.008 47.688 48.928 103.856 48.928 162.424 0 88.28-38.232 169.832-104.888 223.72-40.896 33.072-142.264 90.048-163.424 101.824-20.32-11.528-114.704-65.472-154.072-94.536-71.576-52.832-114.312-139.192-114.312-231.008 0-143.912 103.096-262.872 235.704-279.864a49.224 49.224 0 0 0 44.656 28.68 49.2 49.2 0 0 0 42.688-24.848 256.016 256.016 0 0 1 56.624 19.296 8 8 0 1 0 6.92-14.424 271.384 271.384 0 0 0-57.936-19.992c0.568-2.992 0.896-6.072 0.896-9.232 0-27.128-22.072-49.192-49.192-49.192a49.264 49.264 0 0 0-48.952 54.088c-139.392 19.048-247.416 144.256-247.416 295.496 0 96.872 45.168 188.04 120.816 243.88 4.432 3.272 9.528 6.84 15.08 10.6a237.376 237.376 0 0 0-75.12 57.96c-0.528 0.48-1.08 0.936-1.48 1.568-0.088 0.144-0.088 0.304-0.168 0.448-34.608 41.024-55.568 93.904-55.568 151.656v134.592a8 8 0 0 0 8 8h551.552a8 8 0 0 0 8-8v-134.592c0.008-57.712-20.952-110.544-55.52-151.552zM491.12 27.192c18.304 0 33.192 14.888 33.192 33.192s-14.888 33.192-33.192 33.192-33.2-14.88-33.2-33.184 14.896-33.2 33.2-33.2z m-8.76 707.064a8 8 0 0 0-8 8v44.92c0 0.152 0.08 0.28 0.088 0.432a38.472 38.472 0 0 1-30.408-37.552c0-21.184 17.232-38.416 38.416-38.416s38.416 17.232 38.416 38.416a38.48 38.48 0 0 1-30.616 37.616c0.008-0.176 0.096-0.32 0.096-0.496v-44.92a7.984 7.984 0 0 0-7.992-8zM346.344 625.608c42.376 27.352 99.72 60.296 120.768 72.272-22.552 6.648-39.064 27.504-39.064 52.176 0 30.008 24.408 54.416 54.416 54.416s54.416-24.408 54.416-54.416c0-26.296-18.744-48.28-43.568-53.328 22.784-12.752 78.144-44.224 121.152-72.56a220.8 220.8 0 0 1 76.688 53.48 123.824 123.824 0 0 0-50.816 100.424v47.504c-27.856 10.368-47.792 37.152-47.792 68.576 0 24.408 12.048 46.008 30.464 59.32h-284.56c20.552-12.984 34.272-35.84 34.272-61.896 0-31.824-20.44-58.896-48.856-68.968V778.08c0-40.16-18.864-77.032-50.864-100.464a220.76 220.76 0 0 1 73.344-52.008z m319.424 325.776c-31.552 0-57.224-25.672-57.224-57.224s25.672-57.224 57.224-57.224c31.552 0 57.224 25.672 57.224 57.224s-25.672 57.224-57.224 57.224z m-309.056-59.8c0 31.552-25.672 57.224-57.224 57.224s-57.224-25.672-57.224-57.224 25.672-57.224 57.224-57.224 57.224 25.672 57.224 57.224z m-142.392-64.696c0-51.768 18-99.392 48.064-136.976 28.504 20.384 45.48 52.736 45.48 88.16v40.8a74.128 74.128 0 0 0-8.368-0.512c-40.376 0-73.224 32.848-73.224 73.224 0 26.056 13.72 48.912 34.272 61.896H214.32v-126.592z m535.552 126.592h-41.344c18.416-13.312 30.464-34.912 30.464-59.32 0-40.376-32.848-73.224-73.224-73.224-3.2 0-6.336 0.28-9.432 0.68V778.08c0-35.408 16.944-67.736 45.416-88.12 30.064 37.584 48.112 85.168 48.112 136.936v126.584z" fill="#3A2C60" p-id="4325"></path><path d="M667.784 160.192a7.976 7.976 0 0 0 11.312 0.224 8 8 0 0 0 0.216-11.312 289.256 289.256 0 0 0-41.072-35.392 8 8 0 1 0-9.256 13.048 273.648 273.648 0 0 1 38.8 33.432zM481.736 135.52h-0.88c-61.96 0-120.32 22.76-160.216 62.512-28.712 28.608-47.272 65.104-54.76 107.096a232.624 232.624 0 0 0-15.064 82.456c0 16.608 3.928 33.864 10.656 51.312 1.408 5.464 3.56 10.416 6.328 14.672 53 112.608 212.48 228.176 212.48 228.176s152.512-110.48 208.84-220.648c8.456-7.768 13.984-20.456 14.44-35.176 3.936-13.016 6.176-25.856 6.176-38.336 0-24-3.696-47.12-10.408-68.888C684.728 193.6 579.792 135.864 481.736 135.52z m-149.8 73.848c36.92-36.792 91.16-57.848 148.92-57.848h0.824c97.976 0.336 203.416 62.264 203.416 197.424v34.72a28.288 28.288 0 0 0-15.872-4.976c-1.128 0-2.248 0.104-3.352 0.24a247.944 247.944 0 0 0-16.4-69.8 8.016 8.016 0 0 0-10.16-4.592c-17.488 6.312-54.416 16.28-105.144 12.232-68.304-5.472-127.872-53.784-157.304-82.104a8 8 0 0 0-10.28-0.68 129.04 129.04 0 0 0-34.088 37.04 247.544 247.544 0 0 0-35.104 107.912 26.784 26.784 0 0 0-3.4-0.248c-5.768 0-11.152 1.808-15.88 4.984v-34.72c0-56.224 18.608-104.488 53.824-139.584zM296.408 399.76v26.872c0 4 0.168 7.96 0.424 11.904l0.16 2.144c0.288 3.776 0.672 7.528 1.184 11.232l0.04 0.4c-11.632 5.024-22.64-10.264-22.64-28.352 0-15.872 8.432-29.28 18.408-29.28 0.832 0 1.68 0.104 2.528 0.32a134.56 134.56 0 0 0-0.104 4.76z m369.8 40.92c0.056-0.712 0.12-1.424 0.16-2.144 0.248-3.936 0.424-7.904 0.424-11.904V399.76c0-1.592-0.024-3.184-0.056-4.768 10.832-2.672 20.888 11.792 20.888 28.976 0 18.088-11.008 33.376-22.64 28.352l0.04-0.4c0.512-3.72 0.904-7.464 1.184-11.24zM650.8 399.76v26.872c0 5.248-0.32 10.424-0.784 15.552-0.208 2.24-0.552 4.48-0.856 6.72-10.96 82.784-81.824 146.928-167.552 146.928s-156.6-64.144-167.56-146.928c-0.296-2.24-0.64-4.48-0.848-6.712a169.376 169.376 0 0 1-0.784-15.552v-26.88c0-3.016 0.192-6.016 0.312-9.016l0.016-0.432v-0.032a231.472 231.472 0 0 1 33.432-110.936 112.408 112.408 0 0 1 24.648-28.376c32.44 30.152 92.592 76.192 162.08 81.752 47.392 3.8 83.632-4.064 104.36-10.6a230.256 230.256 0 0 1 13.536 77.64z" fill="#3A2C60" p-id="4326"></path><path d="M504.584 436.848a8 8 0 0 0-8 8v11.816c0 6.696-5.456 12.152-12.152 12.152s-12.152-5.456-12.152-12.152v-11.816a8 8 0 0 0-16 0v11.816c0 15.52 12.632 28.152 28.152 28.152s28.152-12.632 28.152-28.152v-11.816a8 8 0 0 0-8-8zM420.16 359.424a8 8 0 0 0-8-8c-27.24 0-47.944 22.248-48.808 23.192a7.984 7.984 0 0 0 5.904 13.392c2.16 0 4.304-0.864 5.88-2.568 0.168-0.184 16.912-18.016 37.024-18.016a8 8 0 0 0 8-8zM554.416 351.424a8 8 0 0 0 0 16c20.008 0 36.696 17.664 37.024 18.016a7.984 7.984 0 0 0 11.288 0.48 8 8 0 0 0 0.496-11.304c-0.872-0.944-21.576-23.192-48.808-23.192zM403.432 408.216a17.72 17.72 0 1 0 0 35.44 17.72 17.72 0 0 0 0-35.44zM559.776 408.216a17.72 17.72 0 1 0 0 35.44 17.72 17.72 0 0 0 0-35.44zM482.096 946.44c55.648 0 100.92-45.272 100.92-100.928a8 8 0 0 0-8-8H389.168a8 8 0 0 0-8 8c0 55.656 45.28 100.928 100.928 100.928z m84.552-92.928c-4.04 43.088-40.416 76.928-84.544 76.928s-80.504-33.832-84.552-76.928h169.096z" fill="#3A2C60" p-id="4327"></path></svg>