<?xml version="1.0" standalone="no"?><!DOCTYPE svg PUBLIC "-//W3C//DTD SVG 1.1//EN" "http://www.w3.org/Graphics/SVG/1.1/DTD/svg11.dtd"><svg t="1701971840855" class="icon" viewBox="0 0 1024 1024" version="1.1" xmlns="http://www.w3.org/2000/svg" p-id="11757" width="128" height="128" xmlns:xlink="http://www.w3.org/1999/xlink"><path d="M877.443978 263.525617c-4.988409-64.84932-59.344868-116.109525-125.398287-116.109524H208.82513c-69.321687 0-125.742315 56.420628-125.742315 125.742315v488.176045c0 69.321687 56.420628 125.742315 125.742315 125.742315h609.101966c69.321687 0 125.742315-56.420628 125.742314-125.742315v-387.031748c0-47.819923-26.834201-89.447337-66.225432-110.777088z m-67.77356 497.808836c0 31.82261-25.802117 57.624727-57.624727 57.624727H208.82513c-31.82261 0-57.624727-25.802117-57.624727-57.624727V273.330422c0-31.82261 25.802117-57.624727 57.624727-57.624727h543.220561c31.82261 0 57.624727 25.802117 57.624727 57.624727v488.004031z" fill="#707070" p-id="11758"></path><path d="M219.834033 402.857047h1.376113c9.804804 0 17.717453-7.912649 17.717454-17.717454v-62.613136l52.980346 72.933983c3.268268 4.644381 8.600706 7.396607 14.277171 7.396607h3.612296c9.804804 0 17.717453-7.912649 17.717453-17.717454v-116.625566c0-9.804804-7.912649-17.717453-17.717453-17.717454h-1.376113c-9.804804 0-17.717453 7.912649-17.717453 17.717454v62.613136L237.895515 258.021166c-3.268268-4.644381-8.600706-7.396607-14.449185-7.396607h-1.720142-1.892155c-9.804804 0-17.717453 7.912649-17.717453 17.717453v116.625567c0 9.804804 7.912649 17.889467 17.717453 17.889468zM436.399798 367.250126h-55.388543v-23.909961h45.239711c9.804804 0 17.717453-7.912649 17.717453-17.717454v-1.376113c0-9.804804-7.912649-17.717453-17.717453-17.717453h-45.239711v-18.921552h52.980346c9.804804 0 17.717453-7.912649 17.717453-17.717454v-1.376112c0-9.804804-7.912649-17.717453-17.717453-17.717454h-72.073912c-9.804804 0-17.717453 7.912649-17.717454 17.717454v116.625566c0 9.804804 7.912649 17.717453 17.717454 17.717454h74.482109c9.804804 0 17.717453-7.912649 17.717454-17.717454 0-9.804804-7.912649-17.889467-17.717454-17.889467zM515.870317 402.857047h1.892156c7.568621 0 14.449185-4.816395 16.857383-12.040988l22.18982-65.881404 22.017806 65.881404c2.408198 7.224593 9.116748 12.040988 16.857383 12.040988h1.892155c7.568621 0 14.277171-4.816395 16.857383-12.040988l39.563245-116.625567c1.892155-5.332437 1.032085-11.352931-2.408197-15.997312-3.268268-4.644381-8.77272-7.396607-14.449186-7.396607h-1.892155c-7.568621 0-14.449185 4.988409-16.857383 12.213002l-21.845792 66.053418-22.017806-66.053418c-2.408198-7.224593-9.288762-12.213002-16.857383-12.213002h-2.408197c-7.568621 0-14.449185 4.988409-16.857383 12.213002l-21.845792 66.053418-22.017806-66.053418c-2.408198-7.224593-9.116748-12.213002-16.857383-12.213002h-1.892155c-5.676466 0-11.008903 2.752226-14.449186 7.396607-3.268268 4.644381-4.128339 10.664875-2.408197 15.997312l39.563245 116.625567c2.92424 7.052579 9.804804 12.040988 17.373425 12.040988zM712.826474 402.857047c39.391231 0 56.936671-22.877877 56.936671-45.411725 0.344028-35.262893-30.446498-44.379641-48.679994-50.056106-20.297665-6.192508-22.18982-8.600706-22.18982-13.589115 0-2.92424 7.052579-6.192508 17.717453-6.192508 7.052579 0 15.48127 2.064169 20.297666 4.988409 8.256677 4.988409 19.093566 2.408198 24.253989-5.84848l0.688057-1.032084c2.580212-3.956325 3.268268-8.944734 2.236183-13.589115-1.032085-4.644381-3.956325-8.600706-8.084663-11.008903-10.836889-6.536536-25.630102-10.492861-39.391232-10.492861-37.67109 0-54.528473 21.673778-54.528473 43.003528 0 34.230808 29.070385 43.003528 48.163951 48.852007 20.985721 6.364522 22.705863 8.77272 22.705863 14.621199 0 6.020494-10.320847 8.600706-19.953637 8.600706-9.460776 0-19.609609-3.956325-25.630102-9.976818-3.268268-3.268268-7.912649-5.160423-12.55703-5.160424s-9.288762 1.892155-12.55703 5.160424l-1.032085 1.032084c-3.268268 3.268268-5.160423 7.912649-5.160423 12.729044 0 4.816395 1.892155 9.288762 5.332437 12.55703 13.073072 12.901058 32.854695 20.813707 51.432219 20.813708z" fill="#fa6e33" p-id="11759"></path><path d="M403.545103 454.46128h-168.745842c-18.749538 0-34.058794 15.309256-34.058794 34.058794s15.309256 34.058794 34.058794 34.058794h168.745842c18.749538 0 34.058794-15.309256 34.058794-34.058794s-15.309256-34.058794-34.058794-34.058794z" fill="#8a8a8a" p-id="11760"></path><path d="M403.545103 567.990593h-168.745842c-18.749538 0-34.058794 15.309256-34.058794 34.058794s15.309256 34.058794 34.058794 34.058794h168.745842c18.749538 0 34.058794-15.309256 34.058794-34.058794s-15.309256-34.058794-34.058794-34.058794z" fill="#bfbfbf" p-id="11761"></path><path d="M403.545103 681.519906h-168.745842c-18.749538 0-34.058794 15.309256-34.058794 34.058794s15.309256 34.058794 34.058794 34.058794h168.745842c18.749538 0 34.058794-15.309256 34.058794-34.058794s-15.309256-34.058794-34.058794-34.058794z" fill="#cdcdcd" p-id="11762"></path><path d="M750.153536 449.644885H489.724173c-10.836889 0-19.781623 8.77272-19.781623 19.781623v265.417772c0 10.836889 8.77272 19.781623 19.781623 19.781623H749.981522c10.836889 0 19.781623-8.77272 19.781623-19.781623V469.426508c0-10.836889-8.77272-19.781623-19.609609-19.781623z" fill="#15c9d7" p-id="11763"></path></svg>