<?xml version="1.0" standalone="no"?><!DOCTYPE svg PUBLIC "-//W3C//DTD SVG 1.1//EN" "http://www.w3.org/Graphics/SVG/1.1/DTD/svg11.dtd"><svg t="1691169768921" class="icon" viewBox="0 0 1024 1024" version="1.1" xmlns="http://www.w3.org/2000/svg" p-id="2682" xmlns:xlink="http://www.w3.org/1999/xlink" width="300" height="300"><path d="M557.221031 690.512995c26.145638 13.408019-7.374411 53.632077-32.849648 22.793633-24.134435-28.827242 11.396816-89.833729 66.369696-67.040097 54.972879 22.793633 63.017691 144.806609-53.632077 144.806609S407.051214 687.16099 462.694494 650.959338c-77.766512-58.995285 20.112029-194.41628 111.956962-107.264155 30.168043-83.12972 184.360266-30.168043 147.488212 71.062503 85.140923 12.737618 85.811324 138.773-9.385613 142.125005 18.771227 79.777715-132.739391 152.181019-229.947532 62.347289-61.006488 50.950473-129.387386 8.715213-185.701067-26.145637-56.313681-34.86085-132.739391-29.497642-132.739391 12.737618 0 35.531251 38.212855 42.235261 54.302478 16.089623 6.70401 60.336087-79.777715 61.676889-100.560145 16.089623-21.452831-46.928068 8.044812-73.073705 8.044811-73.073705-63.688092-36.872053-31.508845-148.829014 75.084909-121.342575C192.522905 565.818415 310.513475 541.68398 350.737533 571.181623 307.831871 459.224662 478.784118 386.150956 539.120204 460.565464c38.212855-71.062502 219.221116-65.028894 221.90272 60.336087 101.900947-15.419222 142.125005 112.627362 75.755309 149.499415 78.436913 53.632077 13.408019 182.349063-74.414507 151.510618-15.419222 95.196937-183.019464 61.006488-239.333145 24.804836" fill="#dbdbdb" p-id="2683" data-spm-anchor-id="a313x.search_index.0.i11.433f3a81cWoy26" class=""></path><path d="M192.522905 245.366754c17.430425-79.107314 69.7217-87.152126 69.721701-87.152126l-24.804836 9.385613s-11.396816-13.408019-5.363208-63.01769S264.926209 22.123232 309.843074 33.520048 354.759939 98.548942 354.759939 98.548942l-22.123232 12.067217c5.363208-2.681604 156.873826-105.252952 314.418053 12.067218l-18.771227-12.737619s10.056014-34.190449 20.78243-44.246463c32.179246-24.804836 69.7217-26.816039 95.196937 19.441628s4.022406 102.571348 4.022406 102.571347l-25.475237-18.771227s12.067217 6.70401 25.475237 18.771227c18.100826 16.760024 38.883256 44.916865 34.190449 81.118517l-50.950473 12.067218c17.430425-17.430425 58.995285-16.089623 84.470521 0.670401 67.040097 48.26887 67.710498 129.387386 40.894459 184.360265-64.358493 113.968164-292.965222 128.716985-401.570178 124.69458-108.604956-4.022406-282.909208-26.816039-336.541285-117.99057s-13.408019-181.678662 16.089623-210.505903 109.945758-2.011203 113.968164-2.011203" fill="#E5B88D" p-id="2684" data-spm-anchor-id="a313x.search_index.0.i2.433f3a81cWoy26" class=""></path><path d="M399.006403 80.448116l96.537739 250.729961L583.366668 85.811324S491.521736 42.905662 399.006403 80.448116z" fill="#D89C6E" p-id="2685"></path><path d="M394.313596 311.066048s35.531251-39.553657 79.107314-38.212855c42.905662 1.340802 84.470522 14.748821 114.638565 46.257667 21.452831 22.793633 69.051299 5.363208 83.800121-2.681604s133.409792-24.804836 164.918637 54.302478c32.179246 79.107314-2.011203 143.465807-59.665686 166.929841S684.597214 594.645657 379.564775 583.919241c-99.889744-2.681604-245.366754-54.972879-271.512392-134.080193-10.726415-33.520048 34.86085-185.030667 134.750595-161.566633s133.409792 26.145638 151.510618 22.793633z" fill="#FFFFFF" p-id="2686" data-spm-anchor-id="a313x.search_index.0.i1.433f3a81cWoy26" class=""></path><path d="M720.128465 673.752971s28.827242 175.645053 11.396817 222.57312c-17.430425 46.928068-388.83256 44.246464-448.498246 28.156841-59.665686-16.089623-65.699295-38.212855-65.699295-38.212855-2.011203-4.692807 8.715213-221.90272 8.715212-221.90272" fill="#C4494C" p-id="2687"></path><path d="M262.244606 677.104976s-103.91215-31.508845-114.638566-69.721701c17.430425-21.452831 32.849647-70.392101 34.860851-95.196937 0 0 86.481725 59.665686 191.734676 61.676889s316.429256 3.352005 367.379729-33.520048c26.816039-13.408019 31.508845-14.07842 31.508846-14.078421s0.670401 57.654483 39.553657 91.844933c-0.670401 15.419222-54.972879 65.028894-125.364981 54.302478" fill="#C54A49" p-id="2688"></path><path d="M773.090142 526.935159s15.419222-32.179246 29.497642-22.123232c14.07842 10.056014 4.692807 33.520048-1.340802 36.872053 22.123232-18.771227 45.587266 4.022406 42.235261 20.78243-4.692807 12.737618-29.497642 21.452831-29.497643 21.452831s28.827242-15.419222 36.872054-5.363207c0 2.011203 0 51.620874-38.212855 40.224058s-58.324884-61.676889-39.553657-91.844933zM144.924437 490.063106c-2.681604-1.340802-34.190449 9.385614-14.078421 30.838445-30.838444-12.067217-36.201652 13.408019-36.201652 13.408019s-9.385614 16.089623 16.089623 29.497642c-16.089623-5.363208-28.827242 10.056014-10.726415 28.827242 18.100826 18.771227 44.916865 21.452831 56.313681 12.737618 17.430425-13.408019 26.145638-63.017691 24.804836-84.470521-0.670401-22.123232-36.201652-30.838444-36.201652-30.838445z" fill="#E5B88D" p-id="2689"></path><path d="M718.117262 549.728792s1.340802 77.096111 51.620875 110.616159" fill="#C4494C" p-id="2690"></path><path d="M452.685367 323.596591a40.226069 18.772166 2.219 1 0 80.39181 3.115041 40.226069 18.772166 2.219 1 0-80.39181-3.115041Z" fill="#53271D" p-id="2691"></path><path d="M244.81418 117.99057s4.022406 23.464034 18.771227 15.419222 36.872053-24.134435 29.497643-38.883256c-7.374411-14.748821-21.452831-18.100826-30.838444-14.07842s-13.408019 12.067217-17.430426 37.542454zM706.050045 144.806609c3.352005 3.352005 19.441628 21.452831 27.48644 1.340802 7.374411-20.112029-1.340802-43.576063-11.396817-49.609672-10.726415-6.033609-26.816039 10.056014-29.497642 14.748821-4.022406 4.692807-7.374411 12.067217 13.408019 33.520049z" fill="#D89E6F" p-id="2692"></path><path d="M373.531166 95.867338c-2.681604-9.385614-4.692807-45.587266 40.224058-63.688092s44.246464-16.760024 52.961676-15.419222c-10.726415-8.715213 1.340802-16.760024 10.056015-16.760024s12.067217 12.067217 6.033608 15.419222c-6.033609 4.022406 92.515333-6.70401 115.308966 75.755309 0 0-69.051299 26.145638-115.308966 30.168044S373.531166 95.867338 373.531166 95.867338z" fill="#C24852" p-id="2693"></path><path d="M370.849562 86.481725s-4.022406-2.681604-10.726415 9.385613c-6.70401 12.067217 8.715213 21.452831 23.464033 28.827242s95.867338 20.112029 150.840218 6.033608 76.42571-27.48644 70.392101-39.553657c-6.033609-12.067217-10.726415-14.748821-36.872053-4.692806s-60.336087 20.78243-93.856135 22.793632S370.849562 86.481725 370.849562 86.481725z" fill="#EDB655" p-id="2694"></path><path d="M469.398504 28.827242s-5.363208 2.681604-12.737618 6.033608c-4.022406 2.011203-8.044812 4.022406-12.737619 6.70401s-9.385614 5.363208-13.408019 8.715212c-4.692807 3.352005-8.715213 6.70401-12.737618 10.056015l-5.363208 5.363208c-1.340802 2.011203-2.681604 3.352005-4.022406 5.363207-1.340802 1.340802-2.011203 3.352005-3.352005 4.692807-1.340802 1.340802-1.340802 2.681604-2.011203 4.022406-1.340802 2.011203-1.340802 3.352005-1.340802 3.352005s0-1.340802 0.670401-4.022406c0-1.340802 0.670401-2.681604 1.340802-4.022406 0.670401-1.340802 1.340802-3.352005 2.681604-5.363208 2.011203-3.352005 5.363208-8.044812 8.715213-11.396816 2.011203-2.011203 4.022406-4.022406 6.033608-5.363208 2.011203-2.011203 4.692807-3.352005 6.70401-5.363207 9.385614-6.70401 19.441628-11.396816 27.48644-14.078421 8.044812-3.352005 14.07842-4.692807 14.07842-4.692806zM471.409707 35.531251s-2.011203 3.352005-5.363208 8.715213c-1.340802 2.681604-3.352005 6.033609-4.692807 9.385613-2.011203 3.352005-3.352005 6.70401-5.363207 10.726416-1.340802 3.352005-3.352005 7.374411-4.022406 10.726415-1.340802 3.352005-2.011203 6.70401-2.681604 10.056015 0 1.340802-0.670401 2.681604-0.670401 4.022405v6.033609s0-1.340802-0.670401-2.681604c-0.670401-2.011203-0.670401-4.022406-0.670401-7.37441 0-3.352005 0.670401-6.70401 1.340802-10.726416 0.670401-4.022406 2.681604-7.374411 4.022406-11.396816 2.011203-4.692807 4.022406-8.044812 6.033609-11.396817 2.011203-3.352005 4.022406-6.033609 6.033608-8.715212 4.022406-4.692807 6.70401-7.374411 6.70401-7.374411zM483.476924 31.508845s2.011203 3.352005 4.692807 8.044812c2.681604 5.363208 6.033609 12.067217 8.715213 19.441628 1.340802 4.022406 2.011203 7.374411 3.352004 11.396816 0.670401 3.352005 1.340802 7.374411 1.340802 10.056015v4.022406c0 1.340802 0 2.011203-0.670401 3.352005s-0.670401 2.681604-0.670401 2.681603v-2.681603V85.140923c0-1.340802-0.670401-2.681604-0.670401-4.022406-0.670401-2.681604-1.340802-6.033609-2.681603-9.385614-1.340802-3.352005-2.011203-7.374411-3.352005-10.726415-2.681604-7.374411-4.692807-14.748821-6.70401-20.112029-2.681604-6.033609-3.352005-9.385614-3.352005-9.385614zM495.544142 28.827242s5.363208 0.670401 12.067217 2.681603c7.374411 2.011203 16.760024 5.363208 25.475237 11.396817 2.011203 1.340802 4.022406 2.681604 6.033608 4.692807 2.011203 1.340802 3.352005 3.352005 5.363208 5.363207 2.011203 2.011203 2.681604 4.022406 4.022406 5.363208 1.340802 2.011203 2.011203 4.022406 2.681604 5.363208 0.670401 2.011203 1.340802 3.352005 1.340802 5.363207 0.670401 1.340802 0 2.681604 0.670401 4.022406v3.352005s0-1.340802-0.670401-3.352005c0-1.340802 0-2.681604-1.340802-4.022406-0.670401-1.340802-1.340802-2.681604-2.011203-4.692806-1.340802-1.340802-2.011203-3.352005-3.352005-4.692807-1.340802-1.340802-2.681604-3.352005-4.692807-4.692807-2.011203-1.340802-3.352005-3.352005-5.363207-4.692807l-6.033609-4.022405c-4.022406-2.681604-8.715213-4.692807-12.737618-7.374411-4.022406-2.011203-8.044812-4.022406-11.396817-5.363208-5.363208-3.352005-10.056014-4.692807-10.056014-4.692806z" fill="#992424" p-id="2695"></path><path d="M601.467494 890.962884l-52.291275 9.385613-30.838444 11.396817-17.430426 43.576062 71.062503 32.849648 67.710497 14.07842 38.883256-9.385614 77.766512-72.403304s-65.028894-36.872053-73.073705-36.872053c-7.374411 0-81.788918 7.374411-81.788918 7.374411z" fill="#FFFFFF" p-id="2696"></path><path d="M629.624335 895.65569c0 22.123232-31.508845 18.771227-31.508846-3.352004 0-27.48644 42.905662-32.179246 63.017691-8.715213 20.112029 22.793633 4.692807 64.358493-31.508845 65.699295-38.212855 2.011203-56.984082-22.123232-52.291275-61.676889 6.033609-45.587266 66.369696-85.140923 119.331371-43.576063 26.145638-22.793633 86.481725-20.78243 96.53774 34.190449 52.961676 2.011203 62.34729 40.224058 61.006487 59.665686-3.352005 33.520048-41.56486 45.587266-66.369695 30.168044-25.475237-16.089623-12.737618-50.280072 8.044811-50.280073 26.145638 0 26.145638 30.838444 12.067218 30.838445M496.884944 919.119724c-36.201652-10.056014-67.710498 18.100826-71.062503 51.620875-3.352005 29.497642 29.497642 46.257667 40.894459 23.464033-16.089623 6.70401-29.497642-13.408019-13.408019-27.486439 16.089623-13.408019 46.928068-2.011203 63.688092 20.112029 17.430425 22.123232 79.107314 52.291275 115.308966 12.067217" fill="#e6e6e6" p-id="2697" data-spm-anchor-id="a313x.search_index.0.i4.433f3a81cWoy26" class=""></path><path d="M657.781175 968.058995c-15.419222 0-16.089623 22.123232 4.022406 20.78243 20.112029-1.340802 21.452831-20.112029 17.430425-29.497643-4.022406-9.385614-20.78243-20.112029-36.872053-12.737618s-28.827242 39.553657 0 63.688092c26.145638 21.452831 87.822527 18.100826 99.219343-12.737619 16.089623 27.48644 75.755309 24.134435 98.548942 4.692807 28.156841-23.464034 18.100826-54.302478 18.100826-54.302478 30.168043-20.112029 22.123232-71.062502-9.385613-88.492928-35.531251-19.441628-61.006488 0-61.006488 0M577.33306 893.644488c-14.07842-18.771227-50.280072-20.78243-69.721701-1.340802-19.441628 19.441628-10.726415 46.928068 14.07842 46.928067 24.134435 0 24.804836-27.48644 9.385614-30.168043-13.408019-2.011203-14.748821 12.067217-8.044812 14.748821" fill="#e6e6e6" p-id="2698" data-spm-anchor-id="a313x.search_index.0.i9.433f3a81cWoy26" class=""></path><path d="M204.590122 976.103806l-97.20814-20.78243s5.363208-27.48644 11.396817-28.827241 119.331372-98.548942 119.331372-98.548942l45.587265 22.123232 24.134435 21.452831 24.804836 55.64328-54.302478 36.872053-73.744107 12.067217z" fill="#dbdbdb" p-id="2699" data-spm-anchor-id="a313x.search_index.0.i5.433f3a81cWoy26" class="selected"></path><path d="M247.495784 841.353212c-17.430425-2.011203-34.190449 16.089623-19.441628 36.872053 14.748821 20.78243 67.710498 8.044812 67.710498-42.905661 0-39.553657-30.838444-57.654483-73.073705-54.302479-55.64328 4.022406-69.051299 51.620874-56.313682 85.811324-22.793633-28.156841-63.017691 6.033609-43.576062 33.520048-31.508845-18.100826-69.051299 17.430425-52.291276 58.324884 16.089623 39.553657 69.7217 31.508845 76.42571 0 6.033609-27.48644-31.508845-31.508845-37.542454-6.704009" fill="#e6e6e6" p-id="2700" data-spm-anchor-id="a313x.search_index.0.i6.433f3a81cWoy26" class=""></path><path d="M195.204509 962.695787c11.396816-34.86085-42.905662-49.609671-48.939271-3.352005-6.033609 44.916865 45.587266 56.313681 79.777715 48.26887 34.190449-8.044812 56.313681-45.587266 101.230546-22.793633 44.916865 22.793633 69.051299-0.670401 94.526536-22.123232 25.475237-21.452831 38.212855-45.587266 67.710498-30.168043-38.883256-38.883256-100.560145 20.112029-134.750594-14.078421" fill="#e6e6e6" p-id="2701" data-spm-anchor-id="a313x.search_index.0.i8.433f3a81cWoy26" class=""></path><path d="M305.820668 905.041304c-38.212855-12.737618-50.280072 42.905662 0 42.905662 33.520048 0 50.950473-17.430425 48.26887-48.26887-2.681604-30.838444-28.156841-46.257667-63.017691-41.56486" fill="#e6e6e6" p-id="2702" data-spm-anchor-id="a313x.search_index.0.i7.433f3a81cWoy26" class=""></path><path d="M599.456291 385.480555a63.017691 36.872053 0 1 0 126.035382 0 63.017691 36.872053 0 1 0-126.035382 0Z" fill="#ECB4BB" p-id="2703"></path><path d="M262.915007 385.480555a63.017691 36.872053 0 1 0 126.035381 0 63.017691 36.872053 0 1 0-126.035381 0Z" fill="#ECB4BB" p-id="2704"></path><path d="M599.456291 374.75414s19.441628-9.385614 50.280073-20.78243c30.838444-10.726415 72.403304-23.464034 115.308966-30.838444 10.726415-2.011203 21.452831-3.352005 32.179246-4.022406 10.726415-0.670401 21.452831-2.011203 31.508846-2.011203s20.112029 0 29.497642 0.670401c9.385614 0.670401 18.100826 1.340802 26.145638 2.681604 4.022406 0.670401 8.044812 1.340802 11.396816 2.011203 3.352005 0.670401 7.374411 1.340802 10.056015 2.011202 6.70401 1.340802 12.067217 3.352005 16.760024 4.692807 8.715213 3.352005 14.07842 5.363208 14.07842 5.363208s-5.363208-2.011203-14.07842-4.692807c-4.692807-1.340802-10.056014-3.352005-16.760024-4.022406-6.70401-1.340802-14.07842-2.681604-22.123232-4.022405-8.044812-1.340802-16.760024-2.011203-26.145638-2.681604-9.385614-0.670401-18.771227-0.670401-29.497642 0-10.056014 0-20.78243 1.340802-31.508846 2.011203-10.726415 1.340802-21.452831 2.681604-32.179246 4.692806-42.905662 6.70401-84.470522 19.441628-115.308966 30.168044-30.168043 10.056014-49.609671 18.771227-49.609672 18.771227zM600.126692 389.502961s20.78243-4.692807 52.291276-9.385613c31.508845-4.692807 73.744106-10.056014 116.649768-12.737619 21.452831-1.340802 42.905662-1.340802 63.017691-0.670401 10.056014 0.670401 19.441628 0.670401 28.827241 2.011203 9.385614 0.670401 17.430425 2.011203 25.475237 4.022406 8.044812 1.340802 14.748821 3.352005 21.452831 5.363208 3.352005 0.670401 6.033609 2.011203 8.715212 3.352005s4.692807 2.011203 7.374411 3.352004c2.011203 1.340802 4.022406 2.011203 5.363208 2.681604 1.340802 1.340802 2.681604 2.011203 4.022405 2.681604 2.011203 1.340802 3.352005 2.011203 3.352005 2.011203s-1.340802-0.670401-3.352005-2.011203c-1.340802-0.670401-2.011203-1.340802-4.022405-2.681604-1.340802-0.670401-3.352005-2.011203-5.363208-2.681604-2.011203-1.340802-4.692807-2.011203-7.374411-3.352004-2.681604-0.670401-5.363208-2.011203-8.715212-2.681604-6.033609-2.011203-13.408019-3.352005-21.452831-5.363208-8.044812-1.340802-16.089623-2.681604-25.475237-3.352005-9.385614-0.670401-18.771227-1.340802-28.827241-2.011203-20.112029-0.670401-41.56486 0-62.34729 1.340802-42.905662 2.011203-85.140923 7.374411-116.649768 12.067218-32.179246 4.022406-52.961676 8.044812-52.961677 8.044811zM599.456291 406.262985s20.78243-1.340802 52.961677-2.681604c31.508845-0.670401 73.744106-0.670401 115.979367 2.011203 20.78243 1.340802 42.235261 4.022406 61.676889 6.70401 10.056014 1.340802 19.441628 3.352005 28.15684 5.363208 8.715213 2.011203 17.430425 4.022406 24.804836 6.704009s14.07842 4.692807 20.112029 8.044812l8.044812 4.022406c2.681604 1.340802 4.692807 2.681604 6.704009 4.022406 2.011203 1.340802 3.352005 2.681604 5.363208 3.352004 1.340802 1.340802 2.681604 2.011203 3.352005 2.681604 2.011203 1.340802 2.681604 2.681604 2.681604 2.681604s-1.340802-0.670401-2.681604-2.681604c-0.670401-0.670401-2.011203-2.011203-3.352005-2.681604-1.340802-0.670401-3.352005-2.011203-5.363208-3.352004-2.011203-1.340802-4.022406-2.681604-6.704009-4.022406l-8.044812-4.022406c-6.033609-2.681604-12.737618-5.363208-20.112029-7.374411-7.374411-2.681604-16.089623-4.692807-24.804836-6.704009-8.715213-2.011203-18.100826-3.352005-28.15684-5.363208-19.441628-2.681604-40.894459-5.363208-61.676889-6.70401-42.235261-3.352005-84.470522-3.352005-115.979367-2.681604-32.179246 1.340802-52.961676 2.681604-52.961677 2.681604z" fill="#4D211B" p-id="2705"></path><path d="M376.883171 374.75414s-19.441628-8.715213-50.280073-19.441628c-30.838444-10.726415-72.403304-23.464034-115.308966-30.168044-10.726415-2.011203-21.452831-3.352005-32.179246-4.692806-10.726415-1.340802-20.78243-2.011203-31.508846-2.011203h-29.497642c-9.385614 0.670401-18.100826 1.340802-26.145638 2.681604-8.044812 1.340802-15.419222 2.681604-22.123232 4.022405-6.70401 1.340802-12.067217 3.352005-16.760024 4.022406-8.715213 2.681604-14.07842 4.692807-14.07842 4.692807s5.363208-2.011203 14.07842-5.363208c4.692807-1.340802 10.056014-3.352005 16.760024-4.692806l10.056015-2.011203c3.352005-0.670401 7.374411-1.340802 11.396816-2.011203 8.044812-1.340802 16.760024-2.011203 26.145638-2.681604 9.385614-0.670401 19.441628-0.670401 29.497642-0.670401 10.056014 0 20.78243 0.670401 31.508846 2.011203l32.179246 4.022406c42.905662 7.374411 84.470522 20.112029 115.308966 30.838444 31.508845 12.067217 50.950473 21.452831 50.950474 21.452831zM375.542369 389.502961s-20.78243-4.022406-52.961677-8.715212c-31.508845-4.692807-73.744106-10.056014-116.649768-12.067218-21.452831-1.340802-42.905662-2.011203-62.347289-1.340802-10.056014 0-19.441628 0.670401-28.827242 2.011203-9.385614 0.670401-17.430425 2.011203-25.475237 3.352005-8.044812 1.340802-14.748821 3.352005-21.452831 5.363208-3.352005 0.670401-6.033609 2.011203-8.715212 2.681604-2.681604 0.670401-4.692807 2.011203-7.374411 3.352004-1.340802 2.011203-2.681604 2.681604-4.692806 3.352005-1.340802 0.670401-2.681604 2.011203-4.022406 2.681604-2.011203 1.340802-3.352005 2.011203-3.352005 2.011203s1.340802-0.670401 3.352005-2.011203c1.340802-0.670401 2.011203-1.340802 4.022406-2.681604 1.340802-0.670401 3.352005-2.011203 5.363207-2.681604 2.011203-1.340802 4.692807-2.011203 7.374411-3.352004 2.681604-1.340802 5.363208-2.681604 8.715212-3.352005 6.033609-2.011203 13.408019-4.022406 21.452831-5.363208 8.044812-1.340802 16.760024-2.681604 25.475237-4.022406 9.385614-0.670401 18.771227-1.340802 28.827242-2.011203 20.112029-0.670401 41.56486-0.670401 63.01769 0.670401 42.905662 2.681604 85.140923 8.044812 116.649768 12.737619 30.838444 5.363208 51.620874 9.385614 51.620875 9.385613zM376.883171 406.262985s-20.78243-1.340802-52.961677-1.340802c-31.508845-0.670401-73.744106 0-115.979367 2.681604-20.78243 1.340802-42.235261 3.352005-61.676889 6.70401-10.056014 1.340802-19.441628 3.352005-28.15684 5.363208-8.715213 2.011203-17.430425 4.022406-24.804836 6.704009s-14.07842 4.692807-20.112029 7.374411l-8.044811 4.022406c-2.681604 1.340802-4.692807 2.681604-6.70401 4.022406-2.011203 1.340802-3.352005 2.681604-5.363208 3.352004-1.340802 1.340802-2.681604 2.011203-3.352005 2.681604-2.011203 1.340802-2.681604 2.681604-2.681603 2.681604s1.340802-0.670401 2.681603-2.681604c0.670401-0.670401 2.011203-2.011203 3.352005-2.681604 1.340802-0.670401 3.352005-2.011203 5.363208-3.352004 2.011203-1.340802 4.022406-2.681604 6.70401-4.022406l8.044811-4.022406c6.033609-2.681604 12.737618-5.363208 20.112029-8.044812 7.374411-2.681604 16.089623-4.692807 24.804836-6.704009 8.715213-2.011203 18.100826-4.022406 28.15684-5.363208 19.441628-3.352005 40.894459-5.363208 61.676889-6.70401 42.235261-2.681604 84.470522-2.681604 115.979367-2.011203 31.508845-0.670401 52.961676 1.340802 52.961677 1.340802z" fill="#4D211B" p-id="2706"></path><path d="M582.696267 847.386821H399.006403c-3.352005 0-6.033609 2.681604-6.033609 6.70401 0 2.011203 0.670401 3.352005 1.340802 4.692806 1.340802 1.340802 2.681604 2.011203 4.022406 2.011203h183.689864c3.352005 0 6.033609-2.681604 6.033609-6.704009 0-2.011203-0.670401-3.352005-1.340802-4.692807-1.340802-1.340802-2.681604-2.011203-4.022406-2.011203z m-34.86085-33.520048c3.352005 0 6.033609-2.681604 6.033609-6.70401s-2.681604-6.70401-6.033609-6.70401H433.196852c-3.352005 0-6.033609 2.681604-6.033609 6.70401s2.681604 6.70401 6.033609 6.70401h114.638565z m0 0" fill="#CA9C9C" opacity=".75" p-id="2707"></path><path d="M575.992258 833.978802H392.302393c-3.352005 0-6.033609 2.681604-6.033609 6.704009 0 2.011203 0.670401 3.352005 1.340802 4.692807 1.340802 1.340802 2.681604 2.011203 4.022406 2.011203h183.689865c3.352005 0 6.033609-2.681604 6.033608-6.70401 0-2.011203-0.670401-3.352005-1.340802-4.692807-1.340802-1.340802-2.681604-2.011203-4.022405-2.011202z m-34.860851-33.520049c3.352005 0 6.033609-2.681604 6.033609-6.704009s-2.681604-6.70401-6.033609-6.70401H426.492842c-3.352005 0-6.033609 2.681604-6.033608 6.70401s2.681604 6.70401 6.033608 6.704009h114.638565z m0 0" fill="#F6DE68" p-id="2708"></path></svg>