<?xml version="1.0" standalone="no"?><!DOCTYPE svg PUBLIC "-//W3C//DTD SVG 1.1//EN" "http://www.w3.org/Graphics/SVG/1.1/DTD/svg11.dtd"><svg t="1691170033628" class="icon" viewBox="0 0 1024 1024" version="1.1" xmlns="http://www.w3.org/2000/svg" p-id="4806" xmlns:xlink="http://www.w3.org/1999/xlink" width="300" height="300"><path d="M295.8848 127.3856h6.0928c95.744 0 173.3632 77.6192 173.3632 173.3632V480.256H295.8848c-95.744 0-173.3632-77.6192-173.3632-173.3632v-6.0928c-0.0512-95.7952 77.568-173.4144 173.3632-173.4144zM295.8848 912.8448h6.0928c95.744 0 173.3632-77.6192 173.3632-173.4144v-179.5072H295.8848c-95.744 0-173.3632 77.6192-173.3632 173.4144v6.0928c-0.0512 95.7952 77.568 173.4144 173.3632 173.4144zM726.9376 127.3856h-6.0928c-95.744 0-173.3632 77.6192-173.3632 173.3632V480.256h179.5072c95.744 0 173.4144-77.6192 173.4144-173.3632v-6.0928c-0.0512-95.7952-77.6704-173.4144-173.4656-173.4144z" fill="#FF5F5F" p-id="4807"></path><path d="M475.3408 495.616H295.8848c-104.0896 0-188.7744-84.6848-188.7744-188.7744v-6.0928c0-104.0896 84.6848-188.7744 188.7744-188.7744h6.0928c104.0896 0 188.7744 84.6848 188.7744 188.7744V480.256c-0.0512 8.448-6.912 15.36-15.4112 15.36zM295.8848 142.7456c-87.1424 0-158.0544 70.912-158.0544 158.0544v6.0928c0 87.1424 70.912 158.0544 158.0544 158.0544h164.1472V300.7488c0-87.1424-70.912-158.0544-158.0544-158.0544h-6.0928zM301.9776 928.2048h-6.0928c-104.0896 0-188.7744-84.6848-188.7744-188.7744v-6.0928c0-104.0896 84.6848-188.7744 188.7744-188.7744h179.5072c8.4992 0 15.36 6.8608 15.36 15.36v179.5072c-0.0512 104.1408-84.736 188.7744-188.7744 188.7744z m-6.0928-352.8704c-87.1424 0-158.0544 70.912-158.0544 158.0544v6.0928c0 87.1424 70.912 158.0544 158.0544 158.0544h6.0928c87.1424 0 158.0544-70.912 158.0544-158.0544v-164.1472H295.8848zM726.9376 495.616h-179.5072c-8.4992 0-15.36-6.8608-15.36-15.36V300.7488c0-104.0896 84.6848-188.7744 188.7744-188.7744h6.0928c104.0896 0 188.7744 84.6848 188.7744 188.7744v6.0928c0 104.0896-84.6848 188.7744-188.7744 188.7744z m-164.096-30.72h164.1472c87.1424 0 158.0544-70.912 158.0544-158.0544v-6.0928c0-87.1424-70.912-158.0544-158.0544-158.0544h-6.0928c-87.1424 0-158.0544 70.912-158.0544 158.0544V464.896zM726.9376 928.2048h-6.0928c-104.0896 0-188.7744-84.6848-188.7744-188.7744v-179.5072c0-8.4992 6.8608-15.36 15.36-15.36h179.5072c104.0896 0 188.7744 84.6848 188.7744 188.7744v6.0928c0 104.1408-84.6848 188.7744-188.7744 188.7744z m-164.096-352.8704v164.1472c0 87.1424 70.912 158.0544 158.0544 158.0544h6.0928c87.1424 0 158.0544-70.912 158.0544-158.0544v-6.0928c0-87.1424-70.912-158.0544-158.0544-158.0544h-164.1472z" fill="#424242" p-id="4808"></path></svg>