<?xml version="1.0" standalone="no"?><!DOCTYPE svg PUBLIC "-//W3C//DTD SVG 1.1//EN" "http://www.w3.org/Graphics/SVG/1.1/DTD/svg11.dtd"><svg t="1702054387524" class="icon" viewBox="0 0 1024 1024" version="1.1" xmlns="http://www.w3.org/2000/svg" p-id="32468" xmlns:xlink="http://www.w3.org/1999/xlink" width="128" height="128"><path d="M405.333333 725.333333a320 320 0 1 0 0-640 320 320 0 0 0 0 640z m0 42.666667a362.666667 362.666667 0 1 1 0-725.333333 362.666667 362.666667 0 0 1 0 725.333333zM730.496 730.496a42.666667 42.666667 0 0 0 0 60.373333l150.869333 150.826667a42.666667 42.666667 0 1 0 60.330667-60.330667l-150.826667-150.869333a42.666667 42.666667 0 0 0-60.373333 0z m-30.165333-30.165333a85.333333 85.333333 0 0 1 120.704 0l150.826666 150.869333a85.333333 85.333333 0 1 1-120.661333 120.661333l-150.869333-150.826666a85.333333 85.333333 0 0 1 0-120.704z" fill="#595959" p-id="32469"></path><path d="M640 670.165333l30.208-30.165333 70.229333 70.229333-30.165333 30.165334z" fill="#595959" p-id="32470"></path></svg>